<?xml version="1.0" encoding="UTF-8" standalone="no"?>
<svg
   xmlns:dc="http://purl.org/dc/elements/1.1/"
   xmlns:cc="http://creativecommons.org/ns#"
   xmlns:rdf="http://www.w3.org/1999/02/22-rdf-syntax-ns#"
   xmlns:svg="http://www.w3.org/2000/svg"
   xmlns="http://www.w3.org/2000/svg"
   xmlns:sodipodi="http://sodipodi.sourceforge.net/DTD/sodipodi-0.dtd"
   xmlns:inkscape="http://www.inkscape.org/namespaces/inkscape"
   id="a43d4114-cd98-41f6-b9a0-b0700c71b140"
   data-name="Layer 1"
   width="628"
   height="628.50763"
   viewBox="0 0 628 628.5076"
   version="1.1"
   sodipodi:docname="dejarep.svg"
   inkscape:version="0.92.4 (5da689c313, 2019-01-14)">
  <metadata
     id="metadata49">
    <rdf:RDF>
      <cc:Work
         rdf:about="">
        <dc:format>image/svg+xml</dc:format>
        <dc:type
           rdf:resource="http://purl.org/dc/dcmitype/StillImage" />
        <dc:title></dc:title>
      </cc:Work>
    </rdf:RDF>
  </metadata>
  <defs
     id="defs47" />
  <sodipodi:namedview
     pagecolor="#ffffff"
     bordercolor="#666666"
     borderopacity="1"
     objecttolerance="10"
     gridtolerance="10"
     guidetolerance="10"
     inkscape:pageopacity="0"
     inkscape:pageshadow="2"
     inkscape:window-width="1920"
     inkscape:window-height="1001"
     id="namedview45"
     showgrid="false"
     inkscape:zoom="0.75098531"
     inkscape:cx="385.88235"
     inkscape:cy="399.79313"
     inkscape:window-x="-9"
     inkscape:window-y="-9"
     inkscape:window-maximized="1"
     inkscape:current-layer="a43d4114-cd98-41f6-b9a0-b0700c71b140" />
  <ellipse
     cx="325"
     cy="618.50763"
     rx="199"
     ry="10"
     id="ellipse2"
     style="fill:#e6e6e6" />
  <circle
     cx="98.753799"
     cy="98.753799"
     r="98.753799"
     id="circle4"
     style="fill:#e6e6e6" />
  <circle
     cx="98.753799"
     cy="98.753799"
     r="82.29483"
     id="circle6"
     style="fill:#2a9bc7" />
  <polygon
     points="81.088,90.896 92.44,105.492 130.789,65.011 143.612,77.16 91.121,132.566 67.146,101.741 "
     id="polygon16"
     style="fill:#ffffff" />
  <path
     d="m 265.30871,195.39227 -17.00916,-32.54663 66.23159,-29.50091 0.57344,6.22557 a 33.008,33.008 0 0 1 -13.61467,29.83813 z"
     id="path22"
     inkscape:connector-curvature="0"
     style="fill:#2a9bc7" />
  <path
     d="m 351.13685,131.40021 -67.55026,55.90367 -3.8822,-5.43508 18.63455,-33.38691 8.54084,-3.8822 c 2.04631,-8.66972 -3.1777,-20.29608 -10.09372,-32.61047 l 32.61047,-4.65864 c 1.57402,10.57662 8.74187,18.63529 21.74032,24.06963 z"
     id="path24"
     inkscape:connector-curvature="0"
     style="fill:#9f616a" />
  <path
     d="m 396.17036,191.18608 -35.71623,8.54084 -12.423,-71.43247 6.177,0.96516 A 33.00806,33.00806 0 0 1 379.815,149.7525 Z"
     id="path42"
     inkscape:connector-curvature="0"
     style="fill:#2a9bc7" />
  <path
     d="m 273.74375,118.89086 c -6.48534,-15.6637 -7.53825,-30.44721 1.60416,-43.5788 v 0 0 a 32.97462,32.97462 0 0 1 35.17524,-31.68663 l 5.96094,0.40277 a 32.84642,32.84642 0 0 1 28.29082,20.38647 c 11.11549,27.56779 11.46537,64.20685 8.6913,103.47825 H 271.94 c 4.84212,-18.36587 7.328,-35.60291 1.80375,-49.00206 z"
     id="path18"
     inkscape:connector-curvature="0"
     style="fill:#2f2e41" />
  <path
     d="m 168.46181,166.94952 -21.54424,-9.67784 a 16.4179,16.4179 0 0 1 -7.14015,-23.76472 v 0 a 16.4179,16.4179 0 0 1 26.59776,-1.57931 l 9.9532,12.22112 46.40234,41.15415 30.84512,-20.584 13.9796,23.70151 -50.03519,30.22389 z"
     id="path20"
     inkscape:connector-curvature="0"
     style="fill:#9f616a" />
  <polygon
     points="432.663,517.291 421.405,533.984 331.726,483.127 344.149,421.789 "
     id="polygon26"
     style="fill:#2f2e41" />
  <path
     d="m 314.256,596.87587 -18.24634,-8.15262 -4.65866,-213.52094 -17.46991,-116.07775 67.93848,-12.81126 13.97592,30.28116 c 34.34523,47.1054 -15.72243,191.43875 -41.53949,320.28141 z"
     id="path28"
     inkscape:connector-curvature="0"
     style="fill:#2f2e41" />
  <path
     d="m 315.727,593.97472 3.74388,8.14845 a 10.82449,10.82449 0 0 1 -8.30515,15.23492 l -49.49793,7.07113 a 10.1726,10.1726 0 0 1 -11.21982,-7.27573 v 0 a 10.17259,10.17259 0 0 1 4.6703,-11.59011 l 41.58323,-20.81312 z"
     id="path30"
     inkscape:connector-curvature="0"
     style="fill:#2f2e41" />
  <path
     d="m 430.34554,514.13639 8.94332,-0.65645 a 10.82449,10.82449 0 0 1 11.36645,13.11038 l -10.69313,48.84366 a 10.1726,10.1726 0 0 1 -10.74129,7.96525 v 0 a 10.17261,10.17261 0 0 1 -9.22368,-8.43008 l -4.94943,-46.23693 z"
     id="path32"
     inkscape:connector-curvature="0"
     style="fill:#2f2e41" />
  <circle
     cx="308.43265"
     cy="91.801781"
     r="31.05759"
     id="circle34"
     style="fill:#9f616a" />
  <path
     d="m 344.92533,278.14733 -14.64879,18.52641 a 16.4179,16.4179 0 0 1 -24.789,1.11683 v 0 a 16.4179,16.4179 0 0 1 4.9677,-26.17741 l 14.28273,-6.66527 51.245,-34.93979 -12.423,-34.93979 26.399,-7.7644 17.08167,55.90366 z"
     id="path38"
     inkscape:connector-curvature="0"
     style="fill:#9f616a" />
  <path
     d="m 347.642,161.68137 h -56.2686 c 2.11426,-10.63575 7.78226,-20.28466 23.28356,-27.20291 11.303,-21.60269 16.13191,-41.19716 0,-54.28965 -18.42666,-4.245 -25.56315,-11.95345 -23.28356,-22.55038 l 32.985,-5.43508 c 27.12654,24.15861 27.43623,65.39726 23.2836,109.47802 z"
     id="path40"
     inkscape:connector-curvature="0"
     style="fill:#2f2e41" />
  <path
     d="m 340.26669,250.97194 -67.55026,13.97592 -1.55288,-45.03351 c -9.78142,-10.35567 13.03153,-51.83053 20.96387,-71.43246 l 10.09372,-3.10576 -17.08167,31.05759 59.78586,-48.91571 11.6466,3.10576 3.10576,56.68011 z"
     id="path36"
     inkscape:connector-curvature="0"
     style="fill:#2a9bc7" />
</svg>
